<?xml version="1.0" encoding="utf-8"?>
<!-- Generator: Adobe Illustrator 28.0.0, SVG Export Plug-In . SVG Version: 6.00 Build 0)  -->
<svg version="1.1" id="Layer_1" xmlns="http://www.w3.org/2000/svg" xmlns:xlink="http://www.w3.org/1999/xlink" x="0px" y="0px"
	 viewBox="0 0 32 32" style="enable-background:new 0 0 32 32;" xml:space="preserve">
<style type="text/css">
	.st0{fill:#010101;}
</style>
<g id="Regular-S" transform="matrix(1 0 0 1 1403.36 696)">
	<path class="st0" d="M-1403.21-682.95c0,7.2,5.85,13.03,13.05,13.03c2.77,0,5.32-0.86,7.43-2.34l7.64,7.66
		c0.43,0.41,0.96,0.6,1.52,0.6c1.19,0,2.05-0.9,2.05-2.09c0-0.57-0.23-1.09-0.57-1.48l-7.59-7.62c1.62-2.18,2.57-4.84,2.57-7.76
		c0-7.2-5.83-13.05-13.03-13.05S-1403.21-690.15-1403.21-682.95z M-1400.05-682.95c0-5.48,4.41-9.89,9.89-9.89
		c5.46,0,9.89,4.41,9.89,9.89c0,5.46-4.43,9.89-9.89,9.89C-1395.63-673.05-1400.05-677.49-1400.05-682.95z"/>
</g>
</svg>
