<?xml version="1.0" encoding="utf-8"?>
<!-- Generator: Adobe Illustrator 28.0.0, SVG Export Plug-In . SVG Version: 6.00 Build 0)  -->
<svg version="1.1" id="Layer_1" xmlns="http://www.w3.org/2000/svg" xmlns:xlink="http://www.w3.org/1999/xlink" x="0px" y="0px"
	 viewBox="0 0 185.76 78.92" style="enable-background:new 0 0 185.76 78.92;" xml:space="preserve">
<style type="text/css">
	.st0{fill:#00356B;}
</style>
<path class="st0" d="M0,6.3c0.17,0,0.34,0.01,0.51,0.01c10.35,0,20.71,0,31.06,0c0.15,0,0.31,0,0.48,0c0,0.99,0,1.95,0,2.92
	c-0.86,0.08-1.71,0.14-2.55,0.25c-2.11,0.26-4.18,0.66-6.02,1.83c-0.37,0.24-0.73,0.51-1.12,0.79
	c5.94,10.29,11.87,20.55,17.83,30.87c5.84-10.28,11.65-20.49,17.48-30.74c-3.03-2.34-6.62-2.71-10.25-2.99c0-0.97,0-1.93,0-2.91
	c9.11,0,18.2,0,27.32,0c0,0.96,0,1.92,0,2.89c-0.61,0.05-1.22,0.11-1.82,0.16c-4.73,0.43-8.39,2.64-10.91,6.66
	c-1.54,2.45-2.99,4.97-4.47,7.46c-4.89,8.23-9.77,16.46-14.65,24.7c-0.12,0.2-0.19,0.47-0.19,0.71c-0.01,6.87-0.01,13.75,0,20.62
	c0,0.23,0.05,0.48,0.15,0.69c1.06,2.29,2.87,3.72,5.2,4.56c1.68,0.6,3.42,0.86,5.19,1.02c0.76,0.07,1.53,0.11,2.32,0.17
	c0,0.97,0,1.93,0,2.9c-12.26,0-24.51,0-36.79,0c0-0.96,0-1.91,0-2.9c0.78-0.05,1.57-0.1,2.36-0.17c2.63-0.23,5.24-0.56,7.7-1.59
	c1.12-0.47,2.13-1.11,2.89-2.09c0.26-0.35,0.39-0.71,0.39-1.16c-0.01-7.04-0.01-14.08-0.02-21.13c0-0.24-0.07-0.5-0.19-0.71
	C25.6,38.46,19.3,27.8,12.98,17.16c-0.62-1.05-1.34-2.06-2.1-3.02c-2-2.55-4.67-3.99-7.85-4.52C2.04,9.45,1.01,9.38,0,9.26
	C0,8.27,0,7.28,0,6.3z"/>
<path class="st0" d="M74.76,78.86c-0.59-0.1-1.19-0.17-1.77-0.3c-2.72-0.58-5.03-1.84-6.69-4.12c-1.11-1.52-1.69-3.25-1.76-5.11
	c-0.14-3.37,0.52-6.58,2.2-9.54c0.1-0.18,0.3-0.35,0.49-0.41c7.34-2.67,14.68-5.32,22.03-7.97c0.28-0.1,0.38-0.24,0.38-0.54
	c-0.01-2.64,0-5.27-0.01-7.91c-0.01-2.19-0.34-4.32-1.37-6.28c-0.97-1.87-2.4-3.2-4.49-3.73c-2.27-0.57-4.1,0.11-5.54,1.92
	c-1.19,1.48-1.84,3.2-2.17,5.05c-0.13,0.72-0.18,1.46-0.28,2.18c-0.02,0.1-0.13,0.26-0.23,0.28c-3.29,0.56-6.59,1.11-9.89,1.66
	c-0.03,0.01-0.07-0.01-0.21-0.03c0.09-0.53,0.09-1.08,0.27-1.57c1.5-4.12,4.23-7.26,7.84-9.67c3.03-2.02,6.35-3.34,9.96-3.91
	c1.68-0.27,3.36-0.21,5.04-0.02c1.78,0.2,3.5,0.61,5.12,1.42c2.93,1.46,4.66,3.86,5.48,6.97c0.4,1.52,0.6,3.07,0.58,4.64
	c-0.07,6.16-0.16,12.33-0.25,18.49c-0.03,2.19-0.07,4.38-0.09,6.57c-0.01,0.89,0.1,1.78,0.4,2.63c0.62,1.73,2.01,2.74,3.84,2.84
	c1.36,0.08,2.57-0.33,3.66-1.1c0.8-0.57,1.53-1.24,2.29-1.87c0.09-0.07,0.17-0.15,0.32-0.29c0,0.82-0.05,1.56,0.01,2.29
	c0.06,0.71-0.2,1.21-0.68,1.71c-1.93,2-4.04,3.76-6.61,4.86c-0.86,0.37-1.81,0.54-2.72,0.81c-0.06,0.02-0.11,0.04-0.16,0.07
	c-0.63,0-1.25,0-1.88,0c-0.08-0.02-0.16-0.05-0.24-0.07c-0.72-0.15-1.45-0.23-2.14-0.45c-2.62-0.84-4.53-2.48-5.52-5.09
	c-0.18-0.47-0.27-0.99-0.4-1.52c-0.09,0.08-0.17,0.16-0.26,0.23c-1.16,1.03-2.28,2.11-3.5,3.06c-2.12,1.64-4.46,2.88-7.09,3.49
	c-0.59,0.14-1.2,0.23-1.8,0.34C76.21,78.86,75.49,78.86,74.76,78.86z M89.62,54.09c-0.9,0.41-1.72,0.77-2.54,1.14
	c-3.54,1.62-7.08,3.24-10.62,4.86c-0.24,0.11-0.36,0.25-0.43,0.52c-0.35,1.4-0.6,2.82-0.68,4.27c-0.08,1.46-0.05,2.91,0.48,4.3
	c0.79,2.05,2.12,3.5,4.39,3.82c1.66,0.23,3.29-0.03,4.84-0.66c1.53-0.62,2.84-1.6,4.15-2.59c0.22-0.16,0.29-0.33,0.29-0.6
	c0.03-4.85,0.07-9.7,0.11-14.55C89.62,54.46,89.62,54.32,89.62,54.09z"/>
<path class="st0" d="M184.92,69.08c-0.71,0.62-1.41,1.23-2.12,1.85c-2.21,1.91-4.5,3.69-7.09,5.08c-3,1.61-6.2,2.51-9.59,2.77
	c-2.89,0.22-5.75,0.08-8.54-0.78c-6.24-1.93-10.57-5.98-13.16-11.93c-1.54-3.55-2.07-7.29-1.93-11.14c0.11-3.15,0.57-6.25,1.55-9.25
	c1.41-4.34,3.68-8.14,7.12-11.19c3.24-2.86,7.02-4.6,11.28-5.27c3.51-0.55,7.01-0.45,10.44,0.51c4.06,1.14,7.26,3.43,9.24,7.24
	c1.06,2.04,1.61,4.22,1.77,6.49c0.09,1.32,0.09,2.64,0.12,3.99c-0.18,0.01-0.3,0.02-0.41,0.02c-7.66-0.06-15.31-0.11-22.97-0.17
	c-2.34-0.02-4.67-0.03-7.01-0.06c-0.35,0-0.5,0.06-0.54,0.45c-0.39,3.85-0.5,7.69,0.47,11.48c0.93,3.63,2.66,6.8,5.51,9.28
	c2.53,2.21,5.49,3.47,8.83,3.82c2.77,0.29,5.48,0.07,8.09-0.95c1.84-0.73,3.46-1.84,5-3.05c0.74-0.58,1.46-1.18,2.21-1.79
	c0.49,0.76,0.98,1.5,1.47,2.24c0.07,0.11,0.16,0.2,0.24,0.3C184.92,69.03,184.92,69.06,184.92,69.08z M173.73,43.96
	c0.01-0.12,0.02-0.18,0.02-0.24c-0.04-2.53-0.66-4.9-2.01-7.05c-1.16-1.85-2.68-3.31-4.82-3.92c-3.08-0.87-5.86-0.14-8.31,1.85
	c-1.92,1.55-3.12,3.61-3.94,5.9c-0.42,1.18-0.73,2.4-1.11,3.69C160.35,44.12,167.02,44.04,173.73,43.96z"/>
<path class="st0" d="M130.96,0.02c0.17,0.53,0.32,1.08,0.52,1.6c0.09,0.24,0.07,0.41-0.1,0.61c-0.96,1.17-1.9,2.36-2.86,3.54
	c-0.17,0.21-0.25,0.41-0.24,0.68c0.01,2.44,0.01,4.89,0.01,7.33c0,19.53,0,39.05-0.01,58.58c0,0.38,0.1,0.7,0.3,1.01
	c0.81,1.27,2.02,1.95,3.43,2.27c1.19,0.27,2.41,0.4,3.62,0.59c0.2,0.03,0.4,0.04,0.63,0.07c0,0.86,0,1.69,0,2.56
	c-8.41,0-16.83,0-25.27,0c0-0.83,0-1.67,0-2.56c0.46-0.05,0.94-0.09,1.41-0.14c1.3-0.15,2.61-0.34,3.79-0.94
	c0.51-0.26,0.99-0.6,1.4-1c0.62-0.6,0.93-1.31,0.93-2.24c-0.02-19.27-0.02-38.55-0.03-57.82c0-0.9-0.05-1.81-0.16-2.7
	c-0.15-1.18-0.84-2.02-1.89-2.56c-1.08-0.56-2.26-0.82-3.45-1c-0.84-0.13-1.69-0.22-2.54-0.3c-0.3-0.03-0.41-0.13-0.4-0.45
	c0.03-0.5,0.02-1.01,0-1.52c-0.01-0.26,0.08-0.37,0.35-0.44c3.99-0.99,7.97-2,11.95-3c2.75-0.69,5.5-1.38,8.25-2.08
	c0.08-0.02,0.15-0.06,0.22-0.1C130.87,0.02,130.92,0.02,130.96,0.02z"/>
</svg>
