<?xml version="1.0" encoding="utf-8"?>
<!-- Generator: Adobe Illustrator 28.0.0, SVG Export Plug-In . SVG Version: 6.00 Build 0)  -->
<svg version="1.1" id="Layer_1" xmlns="http://www.w3.org/2000/svg" xmlns:xlink="http://www.w3.org/1999/xlink" x="0px" y="0px"
	 viewBox="0 0 216.24 78.92" style="enable-background:new 0 0 216.24 78.92;" xml:space="preserve">
<path d="M36.89,47.5L15.83,15.85c-2.38-3.41-4.98-6.39-7.8-8.93C5.22,4.38,2.54,2.99,0,2.75V0.37h12.97c4.05,0,7.72,1.27,11.01,3.81
	c3.29,2.54,6.09,5.63,8.39,9.28l16.19,24.4L71.64,0.37h7.74L52.36,44.29v34.63H36.89V47.5z"/>
<path d="M78.48,74.58c-3.53-2.9-5.29-6.8-5.29-11.72c0-3.97,0.93-7.26,2.8-9.88c1.86-2.62,5.14-4.6,9.82-5.95
	C90.48,45.68,96.99,45,105.32,45h1.79c0-6.9-0.95-11.8-2.86-14.7c-1.9-2.9-4.72-4.34-8.45-4.34c-3.09,0-5.63,0.76-7.62,2.26
	c-1.98,1.51-3.41,4.32-4.28,8.45h-6.55c0-2.7,0.18-5,0.53-6.9c0.36-1.9,1.17-3.57,2.44-5c2.46-2.78,8.41-4.17,17.85-4.17
	c7.93,0,13.98,2.08,18.15,6.25c4.17,4.17,6.25,10.41,6.25,18.74v32.13h-10.12l-4.17-5.36h-0.6c-0.71,1.11-1.83,2.22-3.33,3.33
	c-2.7,2.14-6.35,3.21-10.95,3.21C86.99,78.92,82.01,77.47,78.48,74.58z M101.28,71.96c1.19-0.67,2.34-1.61,3.45-2.8
	c1.03-1.11,1.82-2.42,2.38-3.93V50.36h-1.79c-5.63,0-9.72,1.01-12.26,3.03c-2.54,2.02-3.81,5.18-3.81,9.46
	c0,3.25,0.67,5.75,2.02,7.5c1.35,1.75,3.25,2.62,5.71,2.62C98.66,72.97,100.09,72.63,101.28,71.96z"/>
<path d="M136.38,15.85c0-4.05-0.56-7.04-1.67-8.98c-1.11-1.94-3.33-2.92-6.66-2.92h-1.19V0.37h14.28c2.86,0,5.04,0.48,6.55,1.43
	c1.51,0.95,2.58,2.52,3.21,4.7c0.63,2.18,0.95,5.29,0.95,9.34v63.07h-15.47V15.85z"/>
<path d="M176.84,75.11c-4.13-2.54-7.32-6.01-9.58-10.41c-2.26-4.4-3.39-9.38-3.39-14.94c0-6.19,1.13-11.46,3.39-15.83
	c2.26-4.36,5.37-7.68,9.34-9.94c3.97-2.26,8.45-3.39,13.45-3.39c4.92,0,9.36,0.99,13.33,2.98c3.97,1.98,7.1,4.78,9.4,8.39
	c2.3,3.61,3.45,7.76,3.45,12.44c0,1.51-0.08,3.21-0.24,5.12l-0.24,2.38h-35.82c0,7.54,1.15,13.03,3.45,16.48
	c2.3,3.45,5.51,5.18,9.64,5.18c3.81,0,7-0.85,9.58-2.56c2.58-1.7,5.06-4.14,7.44-7.32l3.69,2.74c-2.3,3.57-5.18,6.55-8.63,8.93
	c-3.45,2.38-8.07,3.57-13.86,3.57C185.77,78.92,180.97,77.65,176.84,75.11z M200.17,46.55c0-7.46-0.87-12.75-2.62-15.89
	c-1.75-3.13-4.25-4.7-7.5-4.7c-3.02,0-5.46,1.61-7.32,4.82c-1.87,3.21-2.8,8.47-2.8,15.77H200.17z"/>
</svg>
