<?xml version="1.0" encoding="utf-8"?>
<!-- Generator: Adobe Illustrator 28.0.0, SVG Export Plug-In . SVG Version: 6.00 Build 0)  -->
<svg version="1.1" id="Layer_1" xmlns="http://www.w3.org/2000/svg" xmlns:xlink="http://www.w3.org/1999/xlink" x="0px" y="0px"
	 viewBox="0 0 216.2 78.9" style="enable-background:new 0 0 216.2 78.9;" xml:space="preserve">
<style type="text/css">
	.st0{fill:#FFFFFF;stroke:#000000;stroke-miterlimit:10;}
</style>
<path class="st0" d="M36.9,47.5L15.8,15.9c-2.4-3.4-5-6.4-7.8-8.9C5.2,4.4,2.5,3,0,2.8V0.4h13c4.1,0,7.7,1.3,11,3.8s6.1,5.6,8.4,9.3
	l16.2,24.4L71.6,0.4h7.7l-27,43.9v34.6H36.9V47.5z"/>
<path class="st0" d="M78.5,74.6c-3.5-2.9-5.3-6.8-5.3-11.7c0-4,0.9-7.3,2.8-9.9c1.9-2.6,5.1-4.6,9.8-6c4.7-1.3,11.2-2,19.5-2h1.8
	c0-6.9-0.9-11.8-2.9-14.7c-1.9-2.9-4.7-4.3-8.4-4.3c-3.1,0-5.6,0.8-7.6,2.3c-2,1.5-3.4,4.3-4.3,8.4h-6.6c0-2.7,0.2-5,0.5-6.9
	c0.4-1.9,1.2-3.6,2.4-5c2.5-2.8,8.4-4.2,17.8-4.2c7.9,0,14,2.1,18.2,6.2c4.2,4.2,6.2,10.4,6.2,18.7v32.1h-10.1l-4.2-5.4h-0.6
	c-0.7,1.1-1.8,2.2-3.3,3.3c-2.7,2.1-6.3,3.2-10.9,3.2C87,78.9,82,77.5,78.5,74.6z M101.3,72c1.2-0.7,2.3-1.6,3.4-2.8
	c1-1.1,1.8-2.4,2.4-3.9V50.4h-1.8c-5.6,0-9.7,1-12.3,3s-3.8,5.2-3.8,9.5c0,3.2,0.7,5.8,2,7.5S94.5,73,97,73
	C98.7,73,100.1,72.6,101.3,72z"/>
<path class="st0" d="M136.4,15.9c0-4.1-0.6-7-1.7-9S131.4,4,128.1,4h-1.2V0.4h14.3c2.9,0,5,0.5,6.6,1.4c1.5,1,2.6,2.5,3.2,4.7
	s0.9,5.3,0.9,9.3v63.1h-15.5V15.9z"/>
<path class="st0" d="M176.8,75.1c-4.1-2.5-7.3-6-9.6-10.4s-3.4-9.4-3.4-14.9c0-6.2,1.1-11.5,3.4-15.8c2.3-4.4,5.4-7.7,9.3-9.9
	s8.4-3.4,13.4-3.4c4.9,0,9.4,1,13.3,3c4,2,7.1,4.8,9.4,8.4c2.3,3.6,3.4,7.8,3.4,12.4c0,1.5-0.1,3.2-0.2,5.1l-0.2,2.4h-35.8
	c0,7.5,1.1,13,3.4,16.5s5.5,5.2,9.6,5.2c3.8,0,7-0.8,9.6-2.6c2.6-1.7,5.1-4.1,7.4-7.3l3.7,2.7c-2.3,3.6-5.2,6.6-8.6,8.9
	c-3.4,2.4-8.1,3.6-13.9,3.6C185.8,78.9,181,77.7,176.8,75.1z M200.2,46.5c0-7.5-0.9-12.8-2.6-15.9c-1.8-3.1-4.2-4.7-7.5-4.7
	c-3,0-5.5,1.6-7.3,4.8c-1.9,3.2-2.8,8.5-2.8,15.8H200.2z"/>
</svg>
