<?xml version="1.0" encoding="utf-8"?>
<!-- Generator: Adobe Illustrator 28.0.0, SVG Export Plug-In . SVG Version: 6.00 Build 0)  -->
<svg version="1.1" id="Layer_1" xmlns="http://www.w3.org/2000/svg" xmlns:xlink="http://www.w3.org/1999/xlink" x="0px" y="0px"
	 viewBox="0 0 400 400" style="enable-background:new 0 0 400 400;" xml:space="preserve">
<style type="text/css">
	.st0{fill:none;stroke:#000000;stroke-width:0.8907;stroke-miterlimit:10;}
</style>
<path d="M324,6.7l-92.5,150.2l-55.9-84.3c-11.2-17.7-25-32.9-41.1-45.4C116.9,13.6,96.9,6.7,75.1,6.7H0v44.5l16.1,1.5
	c7.2,0.7,15.9,5.5,25.2,13.9c11.3,10.2,22,22.4,31.6,36.2l89.8,135V389h103.9V223.4L400,6.7H324z M257.8,220.9v159.2h-86.1V235.2
	L80.3,97.9c-10.1-14.4-21.2-27.1-33-37.8C36.4,50.2,26.2,44.8,17,43.9l-8.1-0.8V15.6h66.1c19.8,0,38,6.3,54,18.7
	c15.3,11.8,28.4,26.3,39.1,43.2l63.7,96L329,15.6h55.1L257.8,220.9z"/>
<path class="st0" d="M329,15.6l-97.2,157.8l-63.7-96c-10.6-16.8-23.8-31.4-39.1-43.2c-16-12.4-34.2-18.7-54-18.7H8.9v27.5l8.1,0.8
	c9.2,0.9,19.4,6.3,30.3,16.2c11.8,10.7,22.9,23.4,33,37.8l91.4,137.4v144.9h86.1V220.9L384.1,15.6H329z M248.9,218.4v152.8h-68.3
	V232.5L87.7,92.9c-10.5-15.1-22-28.2-34.4-39.4C40.8,42.2,29,36.1,17.8,35.1V24.5h57.2c17.9,0,34.1,5.6,48.6,16.8
	c14.5,11.2,26.9,24.8,37,41L232.1,190L334,24.5h34.2L248.9,218.4z"/>
<path class="st0" d="M329,15.6l-97.2,157.8l-63.7-96c-10.6-16.8-23.8-31.4-39.1-43.2c-16-12.4-34.2-18.7-54-18.7H8.9v27.5l8.1,0.8
	c9.2,0.9,19.4,6.3,30.3,16.2c11.8,10.7,22.9,23.4,33,37.8l91.4,137.4v144.9h86.1V220.9L384.1,15.6H329z M248.9,218.4v152.8h-68.3
	V232.5L87.7,92.9c-10.5-15.1-22-28.2-34.4-39.4C40.8,42.2,29,36.1,17.8,35.1V24.5h57.2c17.9,0,34.1,5.6,48.6,16.8
	c14.5,11.2,26.9,24.8,37,41L232.1,190L334,24.5h34.2L248.9,218.4z"/>
<path d="M368.1,24.5L248.9,218.4v152.8h-68.3V232.5L87.7,92.9c-10.5-15.1-22-28.2-34.4-39.4C40.8,42.2,29,36.1,17.8,35.1V24.5h57.2
	c17.9,0,34.1,5.6,48.6,16.8c14.5,11.2,26.9,24.8,37,41L232.1,190L334,24.5H368.1z"/>
</svg>
